<?xml version="1.0" encoding="UTF-8" standalone="no"?>
<!DOCTYPE svg PUBLIC "-//W3C//DTD SVG 1.1//EN" "http://www.w3.org/Graphics/SVG/1.1/DTD/svg11.dtd">
<svg width="100%" height="100%" viewBox="0 0 608 350" version="1.1" xmlns="http://www.w3.org/2000/svg" xmlns:xlink="http://www.w3.org/1999/xlink" xml:space="preserve" xmlns:serif="http://www.serif.com/" style="fill-rule:evenodd;clip-rule:evenodd;stroke-linejoin:round;stroke-miterlimit:2;">
    <g transform="matrix(1,0,0,1,-46.4851,-175)">
        <g transform="matrix(1,0,0,1,-3.82715,142.856)">
            <g transform="matrix(1,0,0,1,3.82715,7.1437)">
                <path d="M595.297,75.594C595.297,66.969 592.756,59.807 587.673,54.109C582.591,48.41 576.276,45.253 568.729,44.637C563.801,44.175 560.644,43.251 559.257,41.865C557.255,39.862 556.254,37.475 556.254,34.703C556.254,31.931 557.217,29.62 559.142,27.772C561.067,25.924 563.955,25 567.805,25C580.127,25 590.292,28.927 598.3,36.782C609.235,47.255 614.703,60.193 614.703,75.594L614.703,158.762C614.703,167.233 617.283,174.356 622.442,180.132C627.602,185.908 634.109,189.103 641.964,189.719C646.122,190.182 649.087,191.26 650.858,192.954C652.629,194.648 653.515,196.958 653.515,199.884C653.515,202.965 652.629,205.352 650.858,207.046C649.087,208.74 646.122,209.818 641.964,210.281C633.955,210.897 627.409,214.092 622.327,219.868C617.244,225.644 614.703,232.767 614.703,241.238L614.703,324.406C614.703,338.883 610.083,350.935 600.842,360.561C591.601,370.187 580.589,375 567.805,375C563.955,375 561.067,374.076 559.142,372.228C557.217,370.38 556.254,367.992 556.254,365.066C556.254,362.294 557.178,359.983 559.026,358.135C560.567,356.749 563.801,355.825 568.729,355.363C576.43,354.593 582.783,351.32 587.789,345.545C592.794,339.769 595.297,332.646 595.297,324.175L595.297,241.238C595.297,231.535 596.837,223.68 599.917,217.673C602.998,211.667 608.465,205.737 616.32,199.884C608.465,194.032 603.229,188.487 600.611,183.251C599.836,181.769 599.146,180.22 598.54,178.605C596.59,173.404 582.65,170.594 568.252,172.912C544.37,176.757 529.976,195.402 516.82,214.279C507.205,228.077 496.09,251.121 484.504,267.042C465.9,292.604 441.807,311.718 404.106,307.956C383.411,305.89 367.053,295.552 353.329,280.71C340.653,267.001 330.249,249.353 320.484,231.515C311.274,214.692 302.64,197.71 292.848,184.229C289.4,179.482 285.844,175.165 282.042,171.538C282.388,171.116 264.583,195.917 255.327,210.016C231.272,246.657 204.149,282.393 159.121,282.999C134.981,283.324 116.958,271.208 104.703,258.433L104.703,324.175C104.703,332.954 107.244,340.154 112.327,345.776C117.409,351.397 123.724,354.593 131.271,355.363C136.045,355.825 139.202,356.749 140.743,358.135C142.745,359.983 143.746,362.294 143.746,365.066C143.746,367.992 142.745,370.341 140.743,372.112C138.74,373.883 135.814,374.769 131.964,374.769C119.796,374.769 109.631,370.919 101.469,363.218C90.534,352.591 85.066,339.653 85.066,324.406L85.066,241.238C85.066,232.767 82.525,225.644 77.442,219.868C72.36,214.092 65.891,210.897 58.036,210.281C53.724,209.818 50.721,208.74 49.026,207.046C47.332,205.352 46.485,202.965 46.485,199.884C46.485,196.958 47.332,194.648 49.026,192.954C50.721,191.26 53.724,190.182 58.036,189.719C66.045,189.103 72.552,185.908 77.558,180.132C82.563,174.356 85.066,167.233 85.066,158.762L85.066,75.594C85.066,61.117 89.686,49.065 98.927,39.439C108.168,29.813 119.257,25 132.195,25C135.891,25 138.74,25.924 140.743,27.772C142.745,29.62 143.746,31.931 143.746,34.703C143.746,37.475 142.745,39.785 140.743,41.634C139.356,43.174 136.199,44.175 131.271,44.637C123.57,45.407 117.217,48.641 112.211,54.34C107.206,60.039 104.703,67.123 104.703,75.594L104.703,158.762C104.703,168.465 103.163,176.282 100.083,182.211C97.002,188.141 91.535,194.032 83.68,199.884C91.381,205.737 99.823,217.385 100.03,217.827C119.203,226.103 134.229,227.326 146.686,223.3C166.755,216.814 179.736,197.628 192.443,176.811C204.319,157.355 215.658,136.282 230.083,120.026C245.861,102.245 265.198,90 292,90C320.981,90 342.047,104.874 357.955,124.449C370.946,140.436 393.233,183.624 395.767,187.953C403.516,201.191 411.185,214.482 420.754,224.41C429.084,233.053 438.914,239 452,239C475.654,239 488.824,221.097 502.569,203.283C519.491,181.351 536.909,159.139 565.748,155.088C574.159,153.906 581.59,154.276 588.007,155.502C577.447,142.479 561.211,130.961 535.018,133.942C519.81,135.673 506.935,145.139 495.435,157.27C476.152,177.612 460.872,205.53 447.288,224.28C444.374,228.303 438.742,229.203 434.72,226.288C430.697,223.374 429.797,217.742 432.712,213.72C446.685,194.433 462.536,165.811 482.371,144.887C496.951,129.508 513.703,118.252 532.982,116.058C562.154,112.737 581.786,123.278 595.297,136.788L595.297,75.594ZM472.027,253.536C465.958,255.752 459.338,257 452,257C433.573,257 419.525,249.072 407.794,236.902C397.303,226.017 388.728,211.559 380.233,197.047C372.484,183.809 364.815,170.518 355.246,160.59C346.916,151.947 337.074,146.568 324,146C310.718,145.423 297.306,154.544 294.378,158.509C296.578,160.592 298.714,162.847 300.794,165.257C313.786,180.312 324.666,201.669 336.273,222.871C345.311,239.382 354.813,255.801 366.546,268.49C377.23,280.046 389.781,288.437 405.894,290.044C436.122,293.061 455.033,276.946 469.95,256.45C470.65,255.488 471.342,254.517 472.027,253.536ZM266.682,161.939C266.682,161.939 264.381,161.069 263.134,160.804C238.037,155.485 223.125,171.911 209.101,189.601C200.842,200.017 192.983,211.095 184.359,220.164C174.71,230.31 163.259,237.213 151.341,240.705C139.422,244.197 127.777,244.684 112.848,241.116C117.297,246.492 136.8,265.948 158.879,265.001C177.44,264.205 192.111,256.895 204.663,245.464C218.293,233.052 229.504,216.551 240.279,200.138C249.086,186.723 257.609,173.353 266.682,161.939ZM338.804,129.865C326.947,117.27 311.939,108 292,108C270.944,108 255.942,118.005 243.546,131.974C239.614,136.405 232.645,145.943 232.645,145.943C242.531,141.796 253.73,140.411 266.866,143.196C271.296,144.135 275.5,145.67 279.505,147.734C292.304,135.57 306.695,128 324,128C329.278,128 334.196,128.65 338.804,129.865Z" style="fill:url(#_Linear1);"/>
            </g>
        </g>
    </g>
    <defs>
        <linearGradient id="_Linear1" x1="0" y1="0" x2="1" y2="0" gradientUnits="userSpaceOnUse" gradientTransform="matrix(607.03,0,0,350,46.4851,200)"><stop offset="0" style="stop-color:rgb(0,211,255);stop-opacity:1"/><stop offset="1" style="stop-color:rgb(0,255,131);stop-opacity:1"/></linearGradient>
    </defs>
</svg>
